<svg id="Capa_1" xmlns="http://www.w3.org/2000/svg" viewBox="0 0 486 494"><style>.st0,.st1{fill:none;stroke:url(#SVGID_1_);stroke-width:10;stroke-miterlimit:10}.st1{stroke:url(#SVGID_2_)}</style><linearGradient id="SVGID_1_" gradientUnits="userSpaceOnUse" x1="8.015" y1="381.196" x2="319.471" y2="381.196" gradientTransform="matrix(1 0 0 -1 0 496)"><stop offset=".104" stop-color="#01affd"/><stop offset="1" stop-color="#1668b9"/></linearGradient><path class="st0" d="M40.5 115.5c17.1 39.7 45.8 78.9 86.1 95.8 4.6 1.9 9.8 3.4 15.2 4.6 10.7-16 23-29 37.5-39.6 12.4-9.1 25.4-16.2 38.8-21.8-3.8-2.7-7.9-5.1-12.1-7.3-16.8-8.8-34.9-16.5-52.6-24.8 16.6 4.5 35.7 6.2 51.6 12 9.9 3.6 19.1 8.7 27.6 14.7 25.4-8.7 52-12.8 78.6-16-21.5-35.7-67.4-64.4-102-77.4-36.1-13.6-77-15.2-117.2-19.4-24.6-2.5-51.4-11.7-71-22.5-4.5-2.4-9.2 1.6-7.7 6.6 9.6 30.6 14.5 65.5 27.2 95.1z"/><linearGradient id="SVGID_2_" gradientUnits="userSpaceOnUse" x1="98.241" y1="200.1" x2="480.587" y2="200.1" gradientTransform="matrix(1 0 0 -1 0 496)"><stop offset=".104" stop-color="#01affd"/><stop offset="1" stop-color="#1668b9"/></linearGradient><path class="st1" d="M465.2 110.8c-45.3 24.6-97.3 27.6-148.2 33.5-24.9 2.9-49.5 6.4-72.9 13.5-5.1 1.5-10.2 3.3-15.1 5.2-14.8 5.7-29.1 13.1-42.5 23-12.6 9.3-23 20.3-31.7 32.4-13.9 19.4-23.6 41.6-31.5 64.8-14.5 42-21.2 86.7-19.9 131.1.5 18 .8 36.7 5.3 54.3 1 3.9 2 8.8 5 11.7 3.9 3.8 11-.1 9.4-5.6-11.4-38.9-4.3-84.3 11.4-121.4 18.1-42.7 53.1-68.1 95.8-83.5 11.4-4.1 22.9-7.7 34.7-11.1.2-.1.5-.1.7-.1 2.3 0 3.4 3.4.9 4.6-13.9 6.3-27.7 12.6-40.8 19.5-64.3 33.5-92.4 111.6-68.3 111.6 2 0 4.3-.5 6.9-1.6 37.2-15.4 81.3-15.5 122.2-23.1 14.4-2.6 28.4-6.2 41.5-11.7 52.1-21.7 89.4-64.3 111.6-115.5 16.5-38.2 22.9-83.3 35.5-122.9 1.6-5.1-2-9.4-6.4-9.4-1.2-.3-2.4 0-3.6.7z"/></svg>